# xmcd
#
# Track frame offsets:
#       150
#       41237
#       69095
#       94260
#       98262
#       121802
#       150525
#       154792
#       179597
#       195557
#       226285
#       261147
#       278992
#       286107
#       302857
#
# Disc length: 4351 seconds
#
# Revision: 1
# Processed by: cddbd v1.4PL0 Copyright (c) Steve Scherf et al.
# Submitted via: MusiCat 1.1
#
DISCID=c310fd0f
DTITLE=Jimmy Witherspoon - Live at the Mint
DYEAR=1996
DGENRE=
TTITLE0=Going Down Slow
TTITLE1=Big Boss Man
TTITLE2=Going to Chicago
TTITLE3=Intro
TTITLE4=Ain't nobody's bussiness
TTITLE5=Medley: Trouble in mind - Cherry Red
TTITLE6=Intro
TTITLE7=Past Forty Blues
TTITLE8=What a Wonderfull World
TTITLE9=Medley: Whose hat is that - CC Rider
TTITLE10=Stormy Monday
TTITLE11=Money is getting Cheaper
TTITLE12=Intro
TTITLE13=SK Blues
TTITLE14=Nothin's changed
EXTD=1996\n\n\nsubmitted by Stamppot
EXTT0=
EXTT1=
EXTT2=
EXTT3=
EXTT4=
EXTT5=
EXTT6=
EXTT7=
EXTT8=
EXTT9=
EXTT10=
EXTT11=
EXTT12=
EXTT13=
EXTT14=
PLAYORDER=
